<?xml version="1.0" encoding="UTF-8" standalone="no"?>
<svg width="165px" height="90px" viewBox="0 0 165 90" version="1.1" xmlns="http://www.w3.org/2000/svg" xmlns:xlink="http://www.w3.org/1999/xlink" xmlns:sketch="http://www.bohemiancoding.com/sketch/ns">
    <!-- Generator: Sketch 3.5.2 (25235) - http://www.bohemiancoding.com/sketch -->
    <title>Artboard 1</title>
    <desc>Created with Sketch.</desc>
    <defs>
        <path id="path-1" d="M0,0.0291891892 L26.5351622,0.0291891892 L26.5351622,29.1891892 L0,29.1891892 L0,0.0291891892 Z"></path>
    </defs>
    <g id="Page-1" stroke="none" stroke-width="1" fill="none" fill-rule="evenodd" sketch:type="MSPage">
        <g id="Artboard-1" sketch:type="MSArtboardGroup">
            <rect id="Rectangle-1" opacity="0" fill="#FFFFFF" sketch:type="MSShapeGroup" x="0" y="0" width="175" height="90"></rect>
            <g id="Logo" sketch:type="MSLayerGroup" transform="translate(20.000000, 28.000000)">
                <mask id="mask-2" sketch:name="Clip 2" fill="white">
                    <use xlink:href="#path-1"></use>
                </mask>
                <g id="Clip-2"></g>
                <path d="M25.2107027,5.73786486 L7.95259459,22.8981892 L6.67045946,21.6233514 L25.2107027,3.186 L25.2107027,5.73786486 L25.2107027,5.73786486 Z M12.3988378,27.3203514 L11.1152432,26.0440541 L21.8853243,15.3338108 L21.8955405,15.3235946 L21.8955405,17.8761892 L12.3988378,27.3203514 L12.3988378,27.3203514 Z M8.89321622,23.832973 L20.9111351,11.8821892 L23.1747568,9.60324324 L23.1747568,12.1558378 L22.3180541,13.0234865 L21.8955405,13.4525676 L21.7452162,13.6043514 L10.1753514,25.1085405 L8.89321622,23.832973 L8.89321622,23.832973 Z M25.2107027,1.31789189 L17.2551892,9.22743243 L3.70118919,9.22743243 L0,16.8589459 L4.79067568,21.6233514 L5.73056757,22.5566757 L7.0127027,23.832973 L7.95259459,24.767027 L9.23618919,26.0440541 L12.3988378,29.1891892 L23.2134324,18.4351622 L23.2134324,13.5861081 L24.4999459,12.2791622 L24.4999459,8.28535135 L25.2107027,7.60743243 L26.5351622,6.28954054 L26.5351622,0 L25.2107027,1.31789189 L25.2107027,1.31789189 Z" id="Fill-1" fill="#EC1923" sketch:type="MSShapeGroup" mask="url(#mask-2)"></path>
            </g>
            <path d="M71.275,37.5 L68.05,37.5 L63.1,47.5 L58.15,37.5 L54.925,37.5 L54.925,55 L58.275,55 L58.275,44.25 L61.55,50.75 L64.65,50.75 L67.925,44.25 L67.925,55 L71.275,55 L71.275,37.5 Z M80.5291667,55.3 C84.4291667,55.3 86.6541667,52.75 86.6541667,49.425 L86.6541667,47.575 C86.6541667,44.25 84.4291667,41.7 80.5291667,41.7 C76.6291667,41.7 74.4041667,44.25 74.4041667,47.575 L74.4041667,49.425 C74.4041667,52.75 76.6291667,55.3 80.5291667,55.3 L80.5291667,55.3 Z M83.3541667,49.65 C83.3541667,51.35 82.4541667,52.625 80.5291667,52.625 C78.6041667,52.625 77.7041667,51.35 77.7041667,49.65 L77.7041667,47.35 C77.7041667,45.65 78.6041667,44.375 80.5291667,44.375 C82.4541667,44.375 83.3541667,45.65 83.3541667,47.35 L83.3541667,49.65 Z M89.5333333,55 L92.9333333,55 L92.9333333,47.3 C92.9333333,45.55 93.9083333,44.65 95.4333333,44.65 C97.0833333,44.65 97.8083333,45.725 97.8083333,47.225 L97.8083333,55 L101.208333,55 L101.208333,46.675 C101.208333,43.55 99.4333333,41.7 96.6083333,41.7 C94.7583333,41.7 93.4333333,42.35 92.7833333,43.55 L92.7833333,42 L89.5333333,42 L89.5333333,55 Z M108.9375,55 L111.2875,55 L111.2875,52.25 L109.9125,52.25 C109.0125,52.25 108.6875,51.9 108.6875,51.05 L108.6875,44.75 L111.4625,44.75 L111.4625,42 L108.6875,42 L108.6875,38.45 L105.2625,38.45 L105.2625,42 L103.4125,42 L103.4125,44.75 L105.2625,44.75 L105.2625,51.3 C105.2625,53.6 106.4375,55 108.9375,55 L108.9375,55 Z M119.591667,55.3 C122.466667,55.3 124.791667,53.575 125.241667,51.2 L122.266667,51.2 C121.941667,52.1 121.041667,52.85 119.591667,52.85 C117.616667,52.85 116.841667,51.525 116.841667,50 L116.841667,49.675 L125.341667,49.675 L125.341667,47.4 C125.341667,44.275 123.391667,41.7 119.541667,41.7 C115.641667,41.7 113.541667,44.2 113.541667,47.725 L113.541667,49.5 C113.541667,53.15 115.916667,55.3 119.591667,55.3 L119.591667,55.3 Z M116.841667,47.15 C116.841667,45.4 117.591667,44.1 119.541667,44.1 C121.366667,44.1 122.216667,45.325 122.216667,46.95 L122.216667,47.275 L116.841667,47.275 L116.841667,47.15 Z M128.220833,55 L131.620833,55 L131.620833,49 C131.620833,46.375 132.820833,45.275 135.045833,45.275 L135.745833,45.275 L135.745833,41.9 L135.345833,41.9 C133.395833,41.9 131.870833,42.575 131.445833,44.525 L131.445833,42 L128.220833,42 L128.220833,55 Z M142,55.3 C143.5,55.3 145.15,54.675 145.75,53.8 L145.75,55 L149.025,55 L149.025,46.7 C149.025,43.675 146.8,41.7 143.55,41.7 C140.75,41.7 138.725,43.05 137.975,45.575 L141.125,45.575 C141.475,44.875 142.2,44.35 143.375,44.35 C144.775,44.35 145.625,45.25 145.625,46.45 L145.625,48.225 C145.025,47.725 143.875,47.125 142.325,47.125 C139.2,47.125 137.075,48.425 137.075,51.25 C137.075,53.775 139.075,55.3 142,55.3 L142,55.3 Z M142.875,53.05 C141.45,53.05 140.375,52.35 140.375,51.15 C140.375,49.95 141.375,49.3 142.975,49.3 C144.5,49.3 145.625,49.975 145.625,51.125 C145.625,52.225 144.375,53.05 142.875,53.05 L142.875,53.05 Z M152.429167,55 L155.829167,55 L155.829167,42 L152.429167,42 L152.429167,55 Z M152.154167,38.6 C152.154167,39.725 152.979167,40.575 154.129167,40.575 C155.279167,40.575 156.104167,39.725 156.104167,38.6 C156.104167,37.475 155.279167,36.625 154.129167,36.625 C152.979167,36.625 152.154167,37.475 152.154167,38.6 L152.154167,38.6 Z M159.433333,55 L162.833333,55 L162.833333,36.75 L159.433333,36.75 L159.433333,55 Z" id="Monterail" fill="#EC1923" sketch:type="MSShapeGroup"></path>
        </g>
    </g>
</svg>
